<?xml version="1.0" encoding="UTF-8"?>
<svg id="Layer_1" data-name="Layer 1" xmlns="http://www.w3.org/2000/svg" viewBox="0 0 313.87 109.16">
  <defs>
    <style>
      .cls-1 {
        fill: #58595b;
      }

      .cls-2 {
        fill: #2267ae;
      }
    </style>
  </defs>
  <g>
    <path class="cls-1" d="M39.65,108.9v-6.24h-8.53v6.24h-1.41v-14.09h1.41v6.52h8.53v-6.52h1.41v14.09h-1.41Z"/>
    <path class="cls-1" d="M58.32,101.89c-.02,3.68-2.35,7.27-7.12,7.27s-7.15-3.58-7.15-7.29c0-3.96,2.58-7.31,7.15-7.31,4.77.02,7.15,3.56,7.12,7.33ZM51.2,107.83c3.84,0,5.7-2.92,5.72-5.94,0-3.16-1.87-5.98-5.72-6-3.78,0-5.78,2.68-5.74,6,.04,3.08,1.89,5.94,5.74,5.94Z"/>
    <path class="cls-1" d="M64.08,96.14h-4.97v-1.33h11.35v1.33h-4.97v12.76h-1.41v-12.76Z"/>
    <path class="cls-1" d="M88.94,108.9h-1.83l-4.67-5.19h-3.64v5.19h-1.41v-14.09h6.32c3.14,0,4.65,2.09,4.67,4.47.02,2.19-1.27,4.19-4.25,4.33l4.81,5.29ZM78.8,96.14v6.24h4.83c2.25,0,3.34-1.33,3.34-3.1s-1.09-3.14-3.26-3.14h-4.91Z"/>
    <path class="cls-1" d="M102.67,94.81v8.59c0,3.8-2.5,5.63-5.55,5.63s-5.64-1.83-5.64-5.63v-8.59h1.41v8.59c0,2.68,1.83,4.33,4.23,4.33,2.13,0,4.15-1.39,4.15-4.33v-8.59h1.41Z"/>
    <path class="cls-1" d="M116.41,106.24l-.08-4.67v-6.76h1.41v14.09h-.85l-9.12-11.33.04,4.17v7.17h-1.41v-14.09h.89l9.12,11.43Z"/>
    <path class="cls-1" d="M131.65,106.24l-.08-4.67v-6.76h1.41v14.09h-.85l-9.12-11.33.04,4.17v7.17h-1.41v-14.09h.89l9.12,11.43Z"/>
    <path class="cls-1" d="M146.99,108.9h-10.1v-14.09h9.92v1.33h-8.51v5.05h8.13v1.31h-8.13v5.07h8.69v1.33Z"/>
    <path class="cls-1" d="M161.62,108.9h-1.83l-4.67-5.19h-3.64v5.19h-1.41v-14.09h6.32c3.14,0,4.65,2.09,4.67,4.47.02,2.19-1.27,4.19-4.25,4.33l4.81,5.29ZM151.48,96.14v6.24h4.83c2.25,0,3.34-1.33,3.34-3.1s-1.09-3.14-3.26-3.14h-4.91Z"/>
    <path class="cls-1" d="M178.37,97.7c-.83-1.33-2.56-1.77-4.04-1.79-1.73,0-3.96.5-3.96,2.58,0,1.65,1.81,2.09,4,2.48,2.78.48,5.6,1.11,5.6,4.11-.02,3.18-3.08,4.05-5.64,4.05-2.38,0-4.79-.87-5.88-3.12l1.23-.66c.97,1.81,2.94,2.44,4.65,2.44s4.21-.46,4.21-2.72c.02-1.91-2.11-2.4-4.31-2.78-2.66-.46-5.27-1.05-5.27-3.78-.04-2.96,2.98-3.9,5.35-3.9,1.93,0,4.01.52,5.25,2.46l-1.19.66Z"/>
    <path class="cls-1" d="M187.12,101.85l4.55-7.04h1.65v.04l-5.49,8.37v5.68h-1.41v-5.68l-5.41-8.37v-.04h1.63l4.49,7.04Z"/>
    <path class="cls-1" d="M204.11,97.7c-.83-1.33-2.56-1.77-4.04-1.79-1.73,0-3.96.5-3.96,2.58,0,1.65,1.81,2.09,4,2.48,2.78.48,5.6,1.11,5.6,4.11-.02,3.18-3.08,4.05-5.64,4.05-2.38,0-4.79-.87-5.88-3.12l1.23-.66c.97,1.81,2.94,2.44,4.65,2.44s4.21-.46,4.21-2.72c.02-1.91-2.11-2.4-4.31-2.78-2.66-.46-5.27-1.05-5.27-3.78-.04-2.96,2.98-3.9,5.35-3.9,1.93,0,4.01.52,5.25,2.46l-1.19.66Z"/>
    <path class="cls-1" d="M211.94,96.14h-4.97v-1.33h11.35v1.33h-4.97v12.76h-1.41v-12.76Z"/>
    <path class="cls-1" d="M230.7,108.9h-10.1v-14.09h9.92v1.33h-8.51v5.05h8.13v1.31h-8.13v5.07h8.69v1.33Z"/>
    <path class="cls-1" d="M246.12,96.88l-5.25,7.73h-.4l-5.27-7.83v12.12h-1.41v-14.09h1.73l5.15,7.77,5.09-7.77h1.77v14.09h-1.41v-12.02Z"/>
    <path class="cls-1" d="M260.23,97.7c-.83-1.33-2.56-1.77-4.04-1.79-1.73,0-3.96.5-3.96,2.58,0,1.65,1.81,2.09,4,2.48,2.78.48,5.6,1.11,5.6,4.11-.02,3.18-3.08,4.05-5.64,4.05-2.38,0-4.79-.87-5.88-3.12l1.23-.66c.97,1.81,2.94,2.44,4.65,2.44s4.21-.46,4.21-2.72c.02-1.91-2.11-2.4-4.31-2.78-2.66-.46-5.27-1.05-5.27-3.78-.04-2.96,2.98-3.9,5.35-3.9,1.93,0,4.01.52,5.25,2.46l-1.19.66Z"/>
  </g>
  <path class="cls-2" d="M48.91,60.32c0,9.04-2.22,15.84-6.67,20.4-4.45,4.56-10.38,6.84-17.79,6.84s-13.34-2.28-17.79-6.84c-4.45-4.56-6.67-11.36-6.67-20.4v-29.24h14.45v29.24c0,4.52.8,7.84,2.39,9.95,1.59,2.11,4.13,3.17,7.61,3.17s6.02-1.06,7.61-3.17c1.59-2.11,2.39-5.43,2.39-9.95v-29.24h14.45v29.24Z"/>
  <path class="cls-2" d="M86.72,86.66v-29.24c0-4.52-.8-7.84-2.39-9.95-1.59-2.11-4.13-3.17-7.61-3.17s-6.02,1.06-7.61,3.17c-1.59,2.11-2.39,5.43-2.39,9.95v29.24h-14.45v-29.24c0-9.04,2.22-15.84,6.67-20.4,4.45-4.56,10.37-6.84,17.79-6.84s13.34,2.28,17.79,6.84c4.45,4.56,6.67,11.36,6.67,20.4v29.24h-14.45Z"/>
  <path class="cls-2" d="M113.22,26.08c-3.7,0-6.81-1.26-9.34-3.79-2.52-2.52-3.79-5.64-3.79-9.34s1.26-6.64,3.79-9.17c2.52-2.52,5.64-3.79,9.34-3.79s6.65,1.26,9.17,3.79c2.52,2.52,3.79,5.58,3.79,9.17s-1.26,6.81-3.79,9.34c-2.52,2.52-5.58,3.79-9.17,3.79Z"/>
  <rect class="cls-2" x="105.97" y="31.09" width="14.45" height="55.58"/>
  <path class="cls-2" d="M192.01,31.09h14.67l-17.34,55.58h-14.45l-9.89-33.35-10,33.35h-14.45l-17.23-55.58h14.67l9.78,36.57,10-36.57h14.45l9.89,36.57,9.89-36.57Z"/>
  <path class="cls-2" d="M232.15,87.55c-7.93,0-14.69-2.8-20.29-8.39-5.6-5.59-8.39-12.36-8.39-20.29s2.8-14.69,8.39-20.29c5.6-5.59,12.36-8.39,20.29-8.39s14.67,2.8,20.23,8.39c5.56,5.6,8.34,12.36,8.34,20.29v27.79h-14.45v-5.89c-.82,1.85-2.6,3.45-5.34,4.78-2.74,1.33-5.67,2-8.78,2ZM222.04,69.27c2.74,2.78,6.15,4.17,10.23,4.17s7.45-1.39,10.11-4.17c2.67-2.78,4-6.24,4-10.39s-1.33-7.61-4-10.39c-2.67-2.78-6.04-4.17-10.11-4.17s-7.49,1.39-10.23,4.17c-2.74,2.78-4.11,6.24-4.11,10.39s1.37,7.61,4.11,10.39Z"/>
  <path class="cls-2" d="M289.41,108.9c-5.71,0-10.65-1.63-14.84-4.89-4.19-3.26-7.28-7.67-9.28-13.23h16.12c2.15,2.67,4.82,4,8,4,6.59,0,9.89-2.96,9.89-8.89v-.33c-3.19,1.33-6.49,2-9.89,2-7.41,0-13.34-2.28-17.79-6.84-4.45-4.56-6.67-11.36-6.67-20.4v-29.24h14.45v29.24c0,4.52.8,7.84,2.39,9.95,1.59,2.11,4.13,3.17,7.61,3.17s6.02-1.06,7.61-3.17c1.59-2.11,2.39-5.43,2.39-9.95v-29.24h14.45v52.8c0,7.19-2.3,13.15-6.89,17.9-4.6,4.74-10.45,7.11-17.56,7.11Z"/>
</svg>